<?xml version="1.0" encoding="UTF-8" standalone="no"?>
<!-- Created with Inkscape (http://www.inkscape.org/) -->

<svg
   version="1.1"
   id="svg1"
   viewBox="250 545 730 730"
   xmlns="http://www.w3.org/2000/svg"
   xmlns:svg="http://www.w3.org/2000/svg">
  <g id="g1">
    <g id="g8">
      <path
         style="fill:#fff;fill-opacity:1"
         d="m 582.0933,1230.9945 c -2.72852,-1.2351 -4.41358,-3.4826 -5.42985,-7.2423 -0.93952,-3.4757 -0.24829,-8.1968 4.06329,-27.7523 4.64019,-21.0458 7.98477,-39.8458 11.64461,-65.4545 4.36261,-30.5263 5.82629,-44.3733 7.76442,-73.4545 2.39333,-35.9115 2.11404,-95.59793 -0.57554,-122.99804 l -0.43706,-4.45255 -7.74341,3.44994 c -18.00775,8.02302 -34.03458,12.0598 -51.01613,12.84974 -14.0568,0.65389 -24.94818,-2.79336 -32.41434,-10.25951 -8.52392,-8.52393 -8.09348,-22.9345 0.77246,-25.86053 4.01219,-1.32414 6.54609,-0.28641 12.60146,5.16078 7.9665,7.16637 8.88378,7.52026 20.22086,7.80113 11.35931,0.28142 19.21085,-0.89983 30.44805,-4.58086 8.15004,-2.66976 23.54659,-10.19127 24.16606,-11.80559 0.42866,-1.11705 -4.24326,-33.03213 -6.79164,-46.39545 -0.99164,-5.2 -3.27814,-15.18182 -5.08111,-22.18182 -14.28942,-55.47835 -29.94852,-91.48869 -54.23766,-124.72727 -7.40927,-10.13926 -11.52604,-17.7883 -11.9897,-22.27716 -0.6551,-6.34219 4.32993,-11.29302 10.56927,-10.49676 5.25868,0.67111 10.75866,5.70837 18.77507,17.19552 2.07132,2.96812 5.90601,8.34204 8.52152,11.94204 12.54524,17.2673 23.47409,38.81272 33.50794,66.05842 12.49126,33.91852 21.31086,67.67 26.33137,100.76686 1.18595,7.81818 2.32139,13.17471 2.79267,13.17471 1.5865,0 17.75736,-17.30005 23.79311,-25.45455 18.2464,-24.65148 30.66969,-47.66964 36.11197,-66.90908 0.84861,-3 2.32562,-8.07273 3.28224,-11.27273 5.6646,-18.94866 7.24931,-32.52914 6.28007,-53.81818 -0.75037,-16.48153 -2.14255,-26.42611 -5.54884,-39.63636 -1.39241,-5.4 -2.35551,-10.52826 -2.14023,-11.39613 0.21528,-0.86787 -0.26276,-3.10409 -1.06232,-4.96938 -0.79956,-1.86529 -1.45374,-4.02353 -1.45374,-4.79608 0,-0.77255 -2.08751,-5.57269 -4.6389,-10.66697 -2.5514,-5.09429 -5.15183,-10.77605 -5.77874,-12.62612 -1.98203,-5.84922 -7.47834,-13.85662 -14.46189,-21.06911 -11.28663,-11.65663 -16.43199,-14.35047 -33.98734,-17.79399 -9.16062,-1.79688 -10.20922,-1.86304 -16.65908,-1.0512 -26.47495,3.33242 -53.28702,12.88283 -68.7516,24.48918 -12.68613,9.5211 -24.155,24.07644 -30.93718,39.26294 -5.17191,11.58082 -5.55515,13.96491 -4.51405,28.08153 0.97919,13.27716 2.96969,32.62274 3.43389,33.37382 0.67887,1.09845 -1.21707,4.23912 -2.79868,4.63607 -4.26463,1.07036 -8.5014,-3.49539 -11.41813,-12.3047 -2.79434,-8.43964 -5.12466,-24.89877 -5.12466,-36.19558 0,-8.55743 1.80315,-14.96579 7.73702,-27.49722 10.76078,-22.72513 27.07429,-40.33456 48.07103,-51.88971 21.86592,-12.03348 40.57289,-17.8243 66.37377,-20.54625 13.41271,-1.41502 20.606,-1.03945 29.50967,1.54073 12.37802,3.58701 23.3615,10.89562 37.04309,24.64914 12.41734,12.48262 21.65347,29.25113 30.06675,54.58721 6.31091,19.00488 6.97662,21.65281 8.50228,33.81818 0.99746,7.95366 1.13844,12.92572 0.74236,26.18182 -0.80813,27.04705 -0.98743,29.94233 -2.22938,36 -1.32739,6.47431 -8.31505,27.81179 -10.95581,33.45454 -0.93598,2 -3.04675,7.53791 -4.69059,12.30647 -7.55297,21.91009 -24.16856,51.09024 -41.23133,72.41006 -5.75463,7.19038 -19.03264,20.60085 -25.57379,25.82892 l -4.54968,3.63636 0.40313,3.27273 c 4.22763,34.32108 5.24099,89.05274 2.60501,140.69774 -1.75287,34.3429 -2.92964,48.4122 -6.23753,74.575 -7.79422,61.6459 -14.70525,89.0325 -24.45973,96.9274 -3.14263,2.5436 -7.7972,3.2506 -11.21478,1.7035 z m 508.6272,-73.9732"
         id="path35" />
    </g>
  </g>
</svg>
