<?xml version="1.0" encoding="UTF-8" standalone="no"?>
<!-- Created with Inkscape (http://www.inkscape.org/) -->

<svg
   version="1.1"
   id="svg1"
   viewBox="550 1042 245 205"
   xmlns="http://www.w3.org/2000/svg"
   xmlns:svg="http://www.w3.org/2000/svg">
  <g id="g1">
    <g id="g8">
      <path
         style="fill:#fff;fill-opacity:1"
         d="m 581.30803,1230.5748 c -3.307,-2.53898 -3.5485,-6.01307 -1.0982,-15.79505 1.9544,-7.80257 13.7432,-39.77437 17.1656,-46.55409 1.2921,-2.55966 2.0665,-5.01328 1.8237,-5.7782 -0.4518,-1.42359 -2.8364,-2.55067 -6.8848,-3.25407 -5.7843,-1.005 -11.3571,-4.63653 -18.4414,-12.0173 -8.4965,-8.85219 -9.6621,-11.5427 -9.4526,-21.81909 0.3905,-19.14876 6.8903,-29.24154 28.2234,-43.82502 13.0303,-8.90754 24.2349,-13.91681 45.8182,-20.484 16.1769,-4.92217 22.7768,-5.70561 45.2284,-5.3688 16.3795,0.24572 19.513,0.4816 24.5898,1.85107 16.9447,4.57084 38.7148,13.65323 49.5915,20.68933 9.8516,6.37299 19.1052,16.375 22.0414,23.82405 2.1018,5.3324 2.0517,16.53203 -0.1,22.34521 -4.605,12.44118 -17.3162,24.54302 -32.7454,31.17559 -12.9785,5.57905 -18.5505,6.8121 -47.1512,10.43428 -10.3591,1.31193 -44.8425,0.55205 -50.348,-1.10948 -1.9704,-0.59463 -24.1238,22.15441 -32.9128,33.79766 -0.7934,1.05107 -4.348,5.34741 -7.8991,9.54741 -3.5511,4.2 -8.874,10.64466 -11.8288,14.32148 -2.9548,3.67681 -6.1003,7.19499 -6.99,7.81818 -1.9136,1.34029 -6.9918,1.45848 -8.6298,0.20084 z m 30.3832,-48.72662 c 1.2761,-1.68764 6.6212,-7.65024 11.8779,-13.25024 5.2567,-5.6 10.4308,-11.40211 11.4979,-12.89357 l 1.9404,-2.71174 9.4545,-0.0303 c 38.5007,-0.12357 48.3927,-0.86815 72.6628,-5.46938 12.8384,-2.43396 24.5014,-7.58529 33.1951,-14.66168 8.4171,-6.8513 11.5967,-12.26488 11.5967,-19.7448 0,-3.33736 -0.3905,-4.86088 -1.7649,-6.88616 -3.0675,-4.52021 -11.8494,-11.6136 -18.7135,-15.11541 -5.9455,-3.03315 -19.4274,-8.05721 -29.2931,-10.91611 -5.5743,-1.61534 -10.6989,-3.23868 -11.3879,-3.60743 -1.8293,-0.97902 -20.9869,-2.87029 -29.0225,-2.86515 -8.6742,0.006 -21.8284,1.7148 -28.2106,3.66569 -25.4768,7.78758 -40.0317,13.6792 -48.501,19.63263 -14.3636,10.09663 -20.2545,24.10232 -14.6693,34.87619 2.2986,4.43395 6.7386,9.45454 8.3613,9.45454 0.5769,0 3.5377,1.19779 6.5797,2.66176 5.594,2.69216 6.6345,3.02453 15.619,4.98962 7.005,1.53212 9.7862,4.45732 7.7741,8.17667 -4.8191,8.90811 -12.8757,27.83169 -11.8297,27.78582 0.2821,-0.0124 1.557,-1.40327 2.8331,-3.0909 z m 43.4638,-58.01256 c -2.5777,-2.63976 -2.8749,-3.32261 -2.8749,-6.60511 0,-3.2159 0.2887,-3.91897 2.3751,-5.78314 1.9642,-1.75499 3.0149,-2.12216 6.0727,-2.12216 3.2227,0 4.0098,0.31213 6.1275,2.42986 2.7102,2.71016 3.6412,5.33883 2.9152,8.23119 -0.2669,1.06358 -1.5788,3.02722 -2.9152,4.36364 -2.0181,2.01815 -2.9717,2.42986 -5.6277,2.42986 -2.7789,0 -3.5745,-0.38573 -6.0727,-2.94414 z m 46.4822,0.6798 c -6.2086,-1.75047 -6.2156,-12.06769 -0.01,-15.066 2.7755,-1.34104 7.5242,-0.43643 9.6285,1.83419 5.7868,6.24401 -1.0489,15.64787 -9.6182,13.23181 z m -85.0185,-1.20134 c -2.3485,-1.66789 -3.975,-4.93227 -3.975,-7.97786 0,-2.72339 0.399,-3.64636 2.4728,-5.7201 2.9267,-2.9267 5.9272,-3.24314 9.5458,-1.00672 3.409,2.10689 5.0437,5.86061 3.9696,9.11517 -1.1446,3.46826 -4.8241,6.14906 -8.4204,6.13496 -1.5623,-0.006 -3.179,-0.25158 -3.5928,-0.54545 z m 217.2111,-447.69234"
         id="path36" />
      </g>
  </g>
</svg>
